<?xml version="1.0" standalone="no"?>
<!DOCTYPE svg PUBLIC "-//W3C//DTD SVG 20010904//EN"
 "http://www.w3.org/TR/2001/REC-SVG-20010904/DTD/svg10.dtd">
<svg version="1.0" xmlns="http://www.w3.org/2000/svg"
 width="512.000000pt" height="512.000000pt" viewBox="0 0 512.000000 512.000000"
 preserveAspectRatio="xMidYMid meet">
<metadata>
Created by potrace 1.14, written by Peter Selinger 2001-2017
</metadata>
<g transform="translate(0.000000,512.000000) scale(0.100000,-0.100000)"
fill="#000000" stroke="none">
<path d="M0 2560 l0 -2560 2560 0 2560 0 0 2560 0 2560 -2560 0 -2560 0 0
-2560z m2896 2177 c121 -73 240 -146 267 -161 l47 -28 0 121 0 120 31 36 31
35 577 0 577 0 32 -33 32 -33 2 -539 3 -539 127 -67 c230 -122 388 -237 446
-325 18 -26 32 -52 32 -58 -1 -6 -10 5 -20 25 -45 85 -219 216 -461 346 l-139
75 0 542 0 542 -28 27 -28 27 -570 0 -570 0 -30 -31 c-28 -30 -29 -33 -32
-155 -3 -89 -7 -124 -16 -124 -14 0 -209 117 -416 250 -209 133 -149 104 106
-53z m-493 87 c-184 -98 -715 -423 -1317 -808 -363 -233 -479 -305 -641 -399
-223 -130 -332 -213 -397 -301 -15 -21 -28 -35 -28 -29 0 18 56 88 106 132 63
55 172 127 354 234 80 46 242 146 360 222 934 599 1584 994 1638 995 7 0 -27
-21 -75 -46z m459 -656 c1349 -853 1940 -1208 2007 -1208 70 0 200 83 227 144
7 17 13 25 14 18 2 -64 -119 -157 -220 -169 -45 -5 -56 -1 -162 54 -235 125
-1446 872 -2056 1270 -62 40 -118 70 -124 67 -7 -4 -8 -2 -4 4 4 7 9 12 11 12
2 0 140 -86 307 -192z m-332 168 c0 -22 -1966 -1232 -2190 -1348 -70 -37 -80
-39 -142 -35 -41 3 -79 12 -100 24 -36 21 -78 77 -77 102 0 9 4 6 10 -9 27
-67 122 -118 202 -107 23 3 72 22 109 41 153 80 1021 608 1783 1085 418 262
405 253 405 247z m337 -404 c848 -519 1112 -684 1436 -900 l217 -145 0 -1302
0 -1302 -26 -24 c-25 -23 -26 -23 -15 -2 6 12 16 25 21 28 7 4 10 453 10 1300
l0 1294 -122 84 c-244 167 -713 462 -1442 906 -192 117 -359 217 -371 223 -20
9 -84 -27 -521 -289 -753 -452 -1164 -714 -1376 -878 l-98 -76 0 -1278 0
-1278 25 -23 c14 -13 23 -26 20 -28 -3 -3 -16 5 -30 18 l-25 23 0 1286 0 1286
78 61 c218 172 608 421 1447 926 253 152 461 277 462 277 1 1 140 -84 310
-187z m-1109 -1979 l-448 -3 0 -833 0 -834 -25 -23 c-14 -13 -28 -21 -31 -18
-3 4 6 14 20 23 l26 17 0 832 c0 458 3 836 7 839 3 4 207 6 452 5 l446 -3
-447 -2z m855 -1672 c15 -41 15 -43 -1 -27 -24 24 -30 231 -29 1036 l0 665 8
-815 c6 -692 9 -822 22 -859z"/>
</g>
</svg>
